<svg xmlns="http://www.w3.org/2000/svg" xmlns:xlink="http://www.w3.org/1999/xlink" width="500" zoomAndPan="magnify" viewBox="0 0 375 374.999991" height="500" preserveAspectRatio="xMidYMid meet" version="1.0"><defs><g/><clipPath id="179bdd4049"><path d="M 37.5 186.394531 L 61.214844 186.394531 L 61.214844 199.148438 L 37.5 199.148438 Z M 37.5 186.394531 " clip-rule="nonzero"/></clipPath><clipPath id="23bc0cdd0b"><path d="M 236.4375 178.945312 L 287.566406 178.945312 L 287.566406 230.078125 L 236.4375 230.078125 Z M 236.4375 178.945312 " clip-rule="nonzero"/></clipPath><clipPath id="f98f735bd7"><path d="M 262.003906 178.945312 C 247.882812 178.945312 236.4375 190.390625 236.4375 204.511719 C 236.4375 218.628906 247.882812 230.078125 262.003906 230.078125 C 276.121094 230.078125 287.566406 218.628906 287.566406 204.511719 C 287.566406 190.390625 276.121094 178.945312 262.003906 178.945312 Z M 262.003906 178.945312 " clip-rule="nonzero"/></clipPath><clipPath id="a55b3c1edd"><path d="M 247.511719 187.296875 L 276.492188 187.296875 L 276.492188 221.796875 L 247.511719 221.796875 Z M 247.511719 187.296875 " clip-rule="nonzero"/></clipPath></defs><rect x="-37.5" width="450" fill="#ffffff" y="-37.499999" height="449.999989" fill-opacity="1"/><rect x="-37.5" width="450" fill="#ffffff" y="-37.499999" height="449.999989" fill-opacity="1"/><g fill="#081ff7" fill-opacity="1"><g transform="translate(39.593597, 226.912737)"><g><path d="M 45.3125 -13.078125 L 32.25 -18.40625 C 32.03125 -15.0625 30.320312 -13.390625 27.125 -13.390625 C 25.3125 -13.390625 23.875 -14.078125 22.8125 -15.453125 C 21.757812 -16.835938 21.234375 -18.765625 21.234375 -21.234375 L 21.234375 -27.34375 L 30.171875 -27.34375 L 30.171875 -40.40625 L 21.234375 -40.40625 L 21.234375 -52.828125 L 3.59375 -52.828125 L 3.59375 -17.96875 C 3.59375 -11.945312 5.351562 -7.300781 8.875 -4.03125 C 12.394531 -0.757812 17.390625 0.875 23.859375 0.875 C 30.460938 0.875 35.613281 -0.335938 39.3125 -2.765625 C 43.019531 -5.203125 45.019531 -8.640625 45.3125 -13.078125 Z M 45.3125 -13.078125 "/></g></g></g><g fill="#081ff7" fill-opacity="1"><g transform="translate(83.791925, 226.912737)"><g><path d="M 50 -21.78125 C 50 -20.988281 49.925781 -20.15625 49.78125 -19.28125 C 49.632812 -18.40625 49.488281 -17.570312 49.34375 -16.78125 L 20.8125 -16.78125 C 21.894531 -13.800781 23.78125 -12.3125 26.46875 -12.3125 C 28.570312 -12.3125 30.023438 -13.328125 30.828125 -15.359375 L 48.359375 -12.421875 C 46.765625 -8.203125 44.039062 -4.929688 40.1875 -2.609375 C 36.34375 -0.285156 31.695312 0.875 26.25 0.875 C 18.695312 0.875 12.867188 -1.101562 8.765625 -5.0625 C 4.660156 -9.019531 2.609375 -14.59375 2.609375 -21.78125 C 2.609375 -29.039062 4.660156 -34.628906 8.765625 -38.546875 C 12.867188 -42.472656 18.695312 -44.4375 26.25 -44.4375 C 33.800781 -44.4375 39.644531 -42.472656 43.78125 -38.546875 C 47.925781 -34.628906 50 -29.039062 50 -21.78125 Z M 31.8125 -25.8125 C 30.351562 -29.519531 28.5 -31.375 26.25 -31.375 C 23.195312 -31.375 21.238281 -29.519531 20.375 -25.8125 Z M 31.8125 -25.8125 "/></g></g></g><g fill="#081ff7" fill-opacity="1"><g transform="translate(133.545095, 226.912737)"><g><path d="M 33.984375 -44.4375 C 39.429688 -44.4375 43.625 -42.710938 46.5625 -39.265625 C 49.507812 -35.816406 50.984375 -30.972656 50.984375 -24.734375 L 50.984375 0 L 33.21875 0 L 33.21875 -18.515625 C 33.21875 -22.148438 32.742188 -24.925781 31.796875 -26.84375 C 30.859375 -28.769531 29.484375 -29.734375 27.671875 -29.734375 C 24.472656 -29.734375 22.328125 -27.046875 21.234375 -21.671875 L 21.234375 0 L 3.59375 0 L 3.59375 -43.578125 L 21.234375 -43.578125 L 21.234375 -36.703125 C 23.847656 -41.710938 28.097656 -44.289062 33.984375 -44.4375 Z M 33.984375 -44.4375 "/></g></g></g><g fill="#081ff7" fill-opacity="1"><g transform="translate(184.605306, 226.912737)"><g><path d="M 32.359375 -44.4375 C 38.304688 -44.4375 42.894531 -42.472656 46.125 -38.546875 C 49.363281 -34.628906 50.984375 -29.039062 50.984375 -21.78125 C 50.984375 -14.59375 49.363281 -9.019531 46.125 -5.0625 C 42.894531 -1.101562 38.304688 0.875 32.359375 0.875 C 29.953125 0.875 27.820312 0.273438 25.96875 -0.921875 C 24.125 -2.117188 22.546875 -3.84375 21.234375 -6.09375 L 21.234375 0 L 3.59375 0 L 3.59375 -54.46875 L 21.234375 -54.46875 L 21.234375 -37.578125 C 23.921875 -42.148438 27.628906 -44.4375 32.359375 -44.4375 Z M 27.234375 -13.390625 C 29.265625 -13.390625 30.820312 -14.113281 31.90625 -15.5625 C 33 -17.019531 33.546875 -19.09375 33.546875 -21.78125 C 33.546875 -27.445312 31.441406 -30.28125 27.234375 -30.28125 C 23.234375 -30.28125 21.234375 -27.445312 21.234375 -21.78125 C 21.234375 -19.09375 21.757812 -17.019531 22.8125 -15.5625 C 23.875 -14.113281 25.347656 -13.390625 27.234375 -13.390625 Z M 27.234375 -13.390625 "/></g></g></g><g fill="#081ff7" fill-opacity="1"><g transform="translate(235.338735, 226.912737)"><g><path d="M 26.25 0.875 C 18.695312 0.875 12.867188 -1.101562 8.765625 -5.0625 C 4.660156 -9.019531 2.609375 -14.59375 2.609375 -21.78125 C 2.609375 -29.039062 4.660156 -34.628906 8.765625 -38.546875 C 12.867188 -42.472656 18.695312 -44.4375 26.25 -44.4375 C 33.800781 -44.4375 39.644531 -42.472656 43.78125 -38.546875 C 47.925781 -34.628906 50 -29.039062 50 -21.78125 C 50 -14.59375 47.925781 -9.019531 43.78125 -5.0625 C 39.644531 -1.101562 33.800781 0.875 26.25 0.875 Z M 26.25 -13.390625 C 28.28125 -13.390625 29.835938 -14.113281 30.921875 -15.5625 C 32.015625 -17.019531 32.5625 -19.09375 32.5625 -21.78125 C 32.5625 -27.445312 30.457031 -30.28125 26.25 -30.28125 C 22.113281 -30.28125 20.046875 -27.445312 20.046875 -21.78125 C 20.046875 -19.09375 20.570312 -17.019531 21.625 -15.5625 C 22.675781 -14.113281 24.21875 -13.390625 26.25 -13.390625 Z M 26.25 -13.390625 "/></g></g></g><g fill="#081ff7" fill-opacity="1"><g transform="translate(285.0919, 226.912737)"><g><path d="M 36.171875 -21.5625 L 52.171875 0 L 33.21875 0 L 26.796875 -8.828125 L 20.375 0 L 1.53125 0 L 17.53125 -21.5625 L 1.53125 -43.578125 L 19.828125 -43.578125 L 26.796875 -34.09375 L 33.875 -43.578125 L 52.171875 -43.578125 Z M 36.171875 -21.5625 "/></g></g></g><g clip-path="url(#179bdd4049)"><path fill="#b2ff5a" d="M 37.5 186.394531 L 61.214844 186.394531 L 61.214844 199.148438 L 37.5 199.148438 Z M 37.5 186.394531 " fill-opacity="1" fill-rule="nonzero"/></g><g clip-path="url(#23bc0cdd0b)"><g clip-path="url(#f98f735bd7)"><path fill="#081ff7" d="M 236.4375 178.945312 L 287.566406 178.945312 L 287.566406 230.078125 L 236.4375 230.078125 Z M 236.4375 178.945312 " fill-opacity="1" fill-rule="nonzero"/></g></g><path fill="#081ff7" d="M 262.0625 204.925781 L 275.832031 212.855469 L 262.0625 220.808594 L 248.296875 212.855469 Z M 262.0625 204.925781 " fill-opacity="1" fill-rule="nonzero"/><g clip-path="url(#a55b3c1edd)"><path fill="#b2ff5a" d="M 247.523438 195.992188 L 261.910156 187.679688 C 262.007812 187.625 262.125 187.625 262.21875 187.679688 L 276.609375 195.992188 C 276.703125 196.046875 276.761719 196.148438 276.761719 196.257812 L 276.761719 212.855469 C 276.761719 212.964844 276.703125 213.066406 276.609375 213.121094 L 262.21875 221.433594 C 262.171875 221.460938 262.117188 221.476562 262.066406 221.476562 C 262.015625 221.476562 261.960938 221.460938 261.914062 221.433594 L 247.523438 213.121094 C 247.429688 213.066406 247.371094 212.964844 247.371094 212.855469 L 247.371094 196.257812 C 247.367188 196.148438 247.425781 196.046875 247.523438 195.992188 Z M 247.988281 212.320312 L 261.753906 204.390625 L 261.753906 188.488281 L 247.988281 196.441406 Z M 262.0625 220.808594 L 275.828125 212.855469 L 262.0625 204.929688 L 248.300781 212.855469 Z M 262.0625 220.808594 " fill-opacity="1" fill-rule="nonzero"/></g></svg>