<svg width="250" height="225" viewBox="0 0 250 225" fill="none" xmlns="http://www.w3.org/2000/svg">
<g filter="url(#filter0_b_127_464)">
<rect width="250" height="225" rx="6" fill="#E1232E"/>
</g>
<path fill-rule="evenodd" clip-rule="evenodd" d="M69.8796 134.558H60.0205L39.4061 114.012V134.558H31.25V90.4424H39.4061V110.099L59.2139 90.4424H68.8937L47.383 111.611L69.8796 134.558ZM134.412 127.532H155.474L162.465 134.469H129.572C125.807 134.469 122.76 131.445 122.76 127.71V97.202C122.76 93.4664 125.807 90.4424 129.572 90.4424H160.314C164.078 90.4424 167.126 93.4664 167.126 97.202V129.844L160.135 122.907V102.005C160.135 99.4257 158.073 97.3799 155.474 97.3799H134.412C131.812 97.3799 129.751 99.4257 129.751 102.005V122.907C129.751 125.486 131.812 127.532 134.412 127.532ZM211.672 112.411H218.663C218.663 100.315 208.804 90.4424 196.615 90.4424C190.968 90.4424 185.591 92.577 181.468 96.4015C176.986 100.582 174.477 106.363 174.477 112.411H174.387V127.71C174.387 131.445 177.435 134.469 181.199 134.469H181.378V112.411C181.378 110.899 181.647 109.387 182.095 107.875C184.067 101.649 189.893 97.3799 196.525 97.3799C204.861 97.3799 211.672 104.14 211.672 112.411ZM153.143 120.682V106.807C153.143 105.383 152.068 104.316 150.544 104.405H139.161C137.817 104.405 136.652 105.472 136.652 106.896V118.191C136.652 119.525 137.727 120.682 139.161 120.682H153.143ZM218.751 134.47L208.892 134.559L206.472 132.158L201.094 126.821L193.655 119.439H203.514L218.751 134.47ZM114.696 90.4424H106.719V108.854H83.9534V90.4424H75.9766V134.558H83.9534V115.435H106.719V134.558H114.696V90.4424Z" fill="white"/>
<defs>
<filter id="filter0_b_127_464" x="-4" y="-4" width="258" height="233" filterUnits="userSpaceOnUse" color-interpolation-filters="sRGB">
<feFlood flood-opacity="0" result="BackgroundImageFix"/>
<feGaussianBlur in="BackgroundImageFix" stdDeviation="2"/>
<feComposite in2="SourceAlpha" operator="in" result="effect1_backgroundBlur_127_464"/>
<feBlend mode="normal" in="SourceGraphic" in2="effect1_backgroundBlur_127_464" result="shape"/>
</filter>
</defs>
</svg>
