<svg width="653" height="536" viewBox="0 0 653 536" fill="none" xmlns="http://www.w3.org/2000/svg">
<rect x="0.0722656" y="150.002" width="534.431" height="356.287" rx="65" transform="rotate(-16.2804 0.0722656 150.002)" fill="url(#paint0_linear_6936_10110)"/>
<rect x="118" y="179" width="534.431" height="356.287" rx="65" fill="url(#paint1_linear_6936_10110)"/>
<path d="M652.431 268.07H118V303.699H652.431V268.07Z" fill="url(#paint2_linear_6936_10110)"/>
<path d="M236.927 475.163H203.732C195.82 475.163 189.258 468.602 189.258 460.689C189.258 452.776 195.82 446.215 203.732 446.215H236.927C244.84 446.215 251.401 452.776 251.401 460.689C251.401 468.602 245.033 475.163 236.927 475.163Z" fill="url(#paint3_linear_6936_10110)"/>
<path d="M341.377 475.163H274.989C267.076 475.163 260.515 468.602 260.515 460.689C260.515 452.776 267.076 446.215 274.989 446.215H341.377C349.29 446.215 355.852 452.776 355.852 460.689C355.852 468.602 349.483 475.163 341.377 475.163Z" fill="url(#paint4_linear_6936_10110)"/>
<defs>
<linearGradient id="paint0_linear_6936_10110" x1="-27.7627" y1="150.002" x2="543.428" y2="164.936" gradientUnits="userSpaceOnUse">
<stop stop-color="#FFD231"/>
<stop offset="1" stop-color="#FB9906"/>
</linearGradient>
<linearGradient id="paint1_linear_6936_10110" x1="118" y1="179" x2="298.2" y2="555.914" gradientUnits="userSpaceOnUse">
<stop stop-color="#081FF7"/>
<stop offset="1" stop-color="#4C72FF"/>
</linearGradient>
<linearGradient id="paint2_linear_6936_10110" x1="90.1651" y1="268.07" x2="625.175" y2="407.947" gradientUnits="userSpaceOnUse">
<stop stop-color="#FFD231"/>
<stop offset="1" stop-color="#FB9906"/>
</linearGradient>
<linearGradient id="paint3_linear_6936_10110" x1="186.022" y1="446.215" x2="252.392" y2="448.698" gradientUnits="userSpaceOnUse">
<stop stop-color="#FFD231"/>
<stop offset="1" stop-color="#FB9906"/>
</linearGradient>
<linearGradient id="paint4_linear_6936_10110" x1="255.549" y1="446.215" x2="357.178" y2="452.049" gradientUnits="userSpaceOnUse">
<stop stop-color="#FFD231"/>
<stop offset="1" stop-color="#FB9906"/>
</linearGradient>
</defs>
</svg>
