<svg width="250" height="225" viewBox="0 0 250 225" fill="none" xmlns="http://www.w3.org/2000/svg">
<g filter="url(#filter0_b_127_474)">
<rect width="250" height="225" rx="6" fill="#005E7B"/>
</g>
<path fill-rule="evenodd" clip-rule="evenodd" d="M40.75 70.497C40.75 64.4219 45.6749 59.4971 51.75 59.4971H148.25C154.325 59.4971 159.25 64.4219 159.25 70.497V83.4961H116.963C108.655 83.4961 102.249 90.5099 102.249 98.7461V140.497H51.75C45.6749 140.497 40.75 135.572 40.75 129.497V70.497ZM60.25 74.0356C58.0409 74.0356 56.25 75.8265 56.25 78.0356V93.1125C56.25 95.3216 58.0409 97.1125 60.25 97.1125H76.7398C78.9489 97.1125 80.7398 95.3216 80.7398 93.1125V78.0356C80.7398 75.8265 78.9489 74.0356 76.7398 74.0356H60.25ZM89.1386 122.597C91.2627 122.597 92.9847 120.875 92.9847 118.751C92.9847 116.627 91.2627 114.905 89.1386 114.905H60.0961C57.972 114.905 56.25 116.627 56.25 118.751C56.25 120.875 57.972 122.597 60.0961 122.597H89.1386Z" fill="white"/>
<path fill-rule="evenodd" clip-rule="evenodd" d="M108.5 100.003C108.5 94.342 113.089 89.7529 118.75 89.7529H200C205.66 89.7529 210.249 94.342 210.249 100.003V156.253C210.249 161.914 205.66 166.503 200 166.503H118.75C113.089 166.503 108.5 161.914 108.5 156.253V100.003ZM118.75 97.7529C117.507 97.7529 116.499 98.7603 116.499 100.003V110.755H202.25V100.003C202.25 98.7603 201.242 97.7529 200 97.7529H118.75ZM116.499 156.253V126.755H202.25V156.253C202.25 157.496 201.242 158.503 200 158.503H118.75C117.507 158.503 116.499 157.496 116.499 156.253ZM160.096 137.018C157.972 137.018 156.25 138.74 156.25 140.864C156.25 142.989 157.972 144.711 160.096 144.711H189.139C191.263 144.711 192.985 142.989 192.985 140.864C192.985 138.74 191.263 137.018 189.139 137.018H160.096Z" fill="white"/>
<defs>
<filter id="filter0_b_127_474" x="-4" y="-4" width="258" height="233" filterUnits="userSpaceOnUse" color-interpolation-filters="sRGB">
<feFlood flood-opacity="0" result="BackgroundImageFix"/>
<feGaussianBlur in="BackgroundImageFix" stdDeviation="2"/>
<feComposite in2="SourceAlpha" operator="in" result="effect1_backgroundBlur_127_474"/>
<feBlend mode="normal" in="SourceGraphic" in2="effect1_backgroundBlur_127_474" result="shape"/>
</filter>
</defs>
</svg>
