<svg width="104" height="68" viewBox="0 0 104 68" fill="none" xmlns="http://www.w3.org/2000/svg">
<rect x="0.5" width="90.3195" height="55.697" rx="10" fill="#081FF7"/>
<rect x="13.6807" y="11.6553" width="90.3195" height="55.697" rx="6" fill="url(#paint0_linear_6936_10103)"/>
<path d="M13.6807 17.225C13.6807 15.7478 14.2754 14.3311 15.334 13.2866C16.3927 12.2421 17.8285 11.6553 19.3256 11.6553H98.3552C99.8524 11.6553 101.288 12.2421 102.347 13.2866C103.405 14.3311 104 15.7478 104 17.225V61.7826C104 63.2598 103.405 64.6765 102.347 65.721C101.288 66.7655 99.8524 67.3523 98.3552 67.3523H19.3256C17.8285 67.3523 16.3927 66.7655 15.334 65.721C14.2754 64.6765 13.6807 63.2598 13.6807 61.7826V17.225ZM30.6156 17.225C30.6156 20.1793 29.4261 23.0127 27.3088 25.1017C25.1916 27.1908 22.3199 28.3644 19.3256 28.3644V50.6432C22.3199 50.6432 25.1916 51.8168 27.3088 53.9059C29.4261 55.9949 30.6156 58.8283 30.6156 61.7826H87.0653C87.0653 58.8283 88.2548 55.9949 90.372 53.9059C92.4893 51.8168 95.361 50.6432 98.3552 50.6432V28.3644C95.361 28.3644 92.4893 27.1908 90.372 25.1017C88.2548 23.0127 87.0653 20.1793 87.0653 17.225H30.6156Z" fill="#E5FBFF"/>
<path d="M68.329 47.3805C66.2117 49.4696 63.34 50.6432 60.3458 50.6432C57.3515 50.6432 54.4798 49.4696 52.3626 47.3805C50.2453 45.2915 49.0558 42.4581 49.0558 39.5038C49.0558 36.5494 50.2453 33.7161 52.3626 31.627C54.4798 29.538 57.3515 28.3644 60.3458 28.3644C63.34 28.3644 66.2117 29.538 68.329 31.627C70.4462 33.7161 71.6357 36.5494 71.6357 39.5038C71.6357 42.4581 70.4462 45.2915 68.329 47.3805Z" fill="#E5FBFF"/>
<defs>
<linearGradient id="paint0_linear_6936_10103" x1="13.6807" y1="11.6553" x2="40.4571" y2="72.2032" gradientUnits="userSpaceOnUse">
<stop stop-color="#081FF7"/>
<stop offset="1" stop-color="#4C72FF"/>
</linearGradient>
</defs>
</svg>
