<!DOCTYPE svg PUBLIC "-//W3C//DTD SVG 1.1//EN" "http://www.w3.org/Graphics/SVG/1.1/DTD/svg11.dtd">
<!-- Uploaded to: SVG Repo, www.svgrepo.com, Transformed by: SVG Repo Mixer Tools -->
<svg height="800px" width="800px" version="1.1" id="Layer_1" xmlns="http://www.w3.org/2000/svg" xmlns:xlink="http://www.w3.org/1999/xlink" viewBox="0 0 390.206 390.206" xml:space="preserve" fill="#000000">
<g id="SVGRepo_bgCarrier" stroke-width="0"/>
<g id="SVGRepo_tracerCarrier" stroke-linecap="round" stroke-linejoin="round"/>
<g id="SVGRepo_iconCarrier"> <path style="fill:#FFFFFF;" d="M357.689,105.374H32.517c-5.947,0-10.861,4.848-10.861,10.861v157.737 c0,5.947,4.848,10.861,10.861,10.861h325.172c5.948,0,10.861-4.848,10.861-10.861V116.234 C368.549,110.287,363.636,105.374,357.689,105.374z"/> <path style="fill:#bdffbe;" d="M43.378,241.972v-93.22c11.895,0,21.657-9.762,21.657-21.657h260.137 c0,11.895,9.762,21.657,21.657,21.657v92.703c-11.895,0-21.657,9.762-21.657,21.657H65.034 C65.034,251.733,55.273,241.972,43.378,241.972z"/> <g> <path style="fill:#00661f;" d="M357.689,83.717H32.517C14.61,83.717,0,98.327,0,116.234v157.737 c0,17.907,14.61,32.517,32.517,32.517h325.172c17.907,0,32.517-14.61,32.517-32.517V116.234 C390.206,98.327,375.596,83.717,357.689,83.717z M368.549,274.489c0,5.947-4.849,10.861-10.861,10.861H32.517 c-5.947,0-10.861-4.848-10.861-10.861V116.234c0-5.947,4.848-10.861,10.861-10.861h325.172c5.948,0,10.861,4.848,10.861,10.861 V274.489z"/> <path style="fill:#00661f;" d="M195.103,149.851c9.762,0,17.325,7.564,17.325,17.325c0,5.947,4.848,10.861,10.861,10.861 c5.947,0,10.861-4.848,10.861-10.861c0-17.907-11.895-32.517-28.186-37.366v-1.099c0-5.947-4.848-10.861-10.861-10.861 c-5.947,0-10.861,4.848-10.861,10.861v1.099c-16.291,4.848-28.186,19.523-28.186,37.366c0,21.657,17.325,39.046,39.046,39.046 c9.244,0.517,17.325,8.145,17.325,17.325c0,9.762-7.564,17.325-17.325,17.325s-17.325-7.564-17.325-17.325 c0-5.947-4.848-10.861-10.861-10.861c-6.012,0-10.861,4.848-10.861,10.861c0,17.907,11.895,32.517,28.186,37.366v1.099 c0,5.947,4.848,10.861,10.861,10.861c5.947,0,10.861-4.848,10.861-10.861v-1.099c16.291-4.848,28.186-19.523,28.186-37.366 c0-21.657-18.424-39.046-39.564-39.046c-9.244-0.517-16.291-8.145-16.291-17.325C177.778,157.414,185.341,149.851,195.103,149.851z "/> <path style="fill:#00661f;" d="M326.788,184.501h-28.186c-5.947,0-10.861,4.848-10.861,10.861c0,5.947,4.848,10.861,10.861,10.861 h28.186c5.948,0,10.861-4.848,10.861-10.861C337.648,189.414,332.735,184.501,326.788,184.501z"/> <path style="fill:#00661f;" d="M91.604,184.501H63.418c-5.947,0-10.861,4.848-10.861,10.861c0,5.947,4.848,10.861,10.861,10.861 h28.186c5.947,0,10.861-4.848,10.861-10.861C102.4,189.414,97.552,184.501,91.604,184.501z"/> </g> </g>
</svg>