<svg width="616" height="400" viewBox="0 0 616 400" fill="none" xmlns="http://www.w3.org/2000/svg">
<rect x="0.5" width="536.41" height="330.786" rx="2.86" fill="#081FF7"/>
<rect x="78.7793" y="69.2129" width="536.41" height="330.786" rx="1.45455" fill="url(#paint0_linear_6935_10102)"/>
<path d="M78.7793 102.292C78.7793 93.5185 82.3115 85.1048 88.5987 78.9014C94.886 72.698 103.413 69.2129 112.305 69.2129H581.664C590.555 69.2129 599.083 72.698 605.37 78.9014C611.657 85.1048 615.19 93.5185 615.19 102.292V366.921C615.19 375.694 611.657 384.107 605.37 390.311C599.083 396.514 590.555 399.999 581.664 399.999H112.305C103.413 399.999 94.886 396.514 88.5987 390.311C82.3115 384.107 78.7793 375.694 78.7793 366.921V102.292ZM179.356 102.292C179.356 119.838 172.292 136.665 159.717 149.072C147.143 161.479 130.088 168.449 112.305 168.449V300.763C130.088 300.763 147.143 307.733 159.717 320.14C172.292 332.547 179.356 349.375 179.356 366.921H514.613C514.613 349.375 521.677 332.547 534.251 320.14C546.826 307.733 563.881 300.763 581.664 300.763V168.449C563.881 168.449 546.826 161.479 534.251 149.072C521.677 136.665 514.613 119.838 514.613 102.292H179.356Z" fill="#E5FBFF"/>
<path d="M403.337 281.386C390.762 293.793 373.708 300.763 355.925 300.763C338.141 300.763 321.087 293.793 308.512 281.386C295.938 268.979 288.873 252.152 288.873 234.606C288.873 217.06 295.938 200.233 308.512 187.826C321.087 175.419 338.141 168.449 355.925 168.449C373.708 168.449 390.762 175.419 403.337 187.826C415.912 200.233 422.976 217.06 422.976 234.606C422.976 252.152 415.912 268.979 403.337 281.386Z" fill="#E5FBFF"/>
<defs>
<linearGradient id="paint0_linear_6935_10102" x1="78.7793" y1="69.2129" x2="237.805" y2="428.809" gradientUnits="userSpaceOnUse">
<stop stop-color="#081FF7"/>
<stop offset="1" stop-color="#4C72FF"/>
</linearGradient>
</defs>
</svg>
