<svg width="67" height="40" viewBox="0 0 67 40" fill="none" xmlns="http://www.w3.org/2000/svg">
<path fill-rule="evenodd" clip-rule="evenodd" d="M62.8556 40H4.14444C1.86501 40 0 38.1193 0 35.8206V4.17936C0 1.88072 1.86501 0 4.14444 0H62.8556C65.135 0 67 1.88072 67 4.17936V35.8206C67 38.1193 65.135 40 62.8556 40Z" fill="black"/>
<path fill-rule="evenodd" clip-rule="evenodd" d="M28.651 29.3806H40.3794V10.5829H28.651V29.3806Z" fill="#FF5F00"/>
<path fill-rule="evenodd" clip-rule="evenodd" d="M29.859 19.9833C29.8559 16.3158 31.5719 12.8508 34.5117 10.5861C29.2221 6.50682 21.5638 7.40769 17.4064 12.5984C13.2494 17.7894 14.1674 25.3045 19.4574 29.3838C23.875 32.7907 30.0941 32.7907 34.5117 29.3838C31.5709 27.1189 29.8549 23.6519 29.859 19.9833Z" fill="#EB001B"/>
<path fill-rule="evenodd" clip-rule="evenodd" d="M53.9416 28.0379V26.9268H53.808L53.6517 27.7204L53.4954 26.9268H53.361V28.0379H53.4578V27.1966L53.6033 27.9188H53.7034L53.8486 27.1966V28.0379H53.9416ZM53.0818 28.0379V27.1172H53.2679V26.9268H52.825V27.1172H53.0003V28.0379H53.0818Z" fill="#F79E1B"/>
<path fill-rule="evenodd" clip-rule="evenodd" d="M54.2228 19.9834C54.2224 26.5853 48.7684 31.9374 42.0406 31.9374C39.3098 31.9371 36.6586 31.0369 34.5119 29.3806C39.8015 25.3009 40.7199 17.7862 36.5625 12.5951C35.9629 11.8467 35.2746 11.1709 34.5119 10.5829C39.8008 6.50255 47.4591 7.40209 51.6175 12.5921C53.3051 14.6987 54.2224 17.3004 54.2228 19.9801V19.9834Z" fill="#F79E1B"/>
</svg>
