<svg width="70" height="49" viewBox="0 0 70 49" fill="none" xmlns="http://www.w3.org/2000/svg">
<mask id="path-1-outside-1_1_2669" maskUnits="userSpaceOnUse" x="0" y="0" width="70" height="49" fill="black">
<rect fill="white" width="70" height="49"/>
<path fill-rule="evenodd" clip-rule="evenodd" d="M4.09971 41.109C3.61612 43.258 4.93835 45 7.05301 45H21.1934H23.2651H37.4055C37.4228 45 37.4401 44.9999 37.4573 44.9997C37.4745 44.9999 37.4918 45 37.5091 45H53.7213C55.8358 45 57.9421 43.258 58.4256 41.109L65.9003 7.89101C66.3838 5.74209 65.0617 4 62.947 4H46.7349C46.7176 4 46.7003 4.00012 46.683 4.00035C46.6658 4.00012 46.6486 4 46.6313 4H32.491H30.4191H16.2788C14.1642 4 12.0579 5.74209 11.5744 7.89101L4.09971 41.109Z"/>
</mask>
<path fill-rule="evenodd" clip-rule="evenodd" d="M4.09971 41.109C3.61612 43.258 4.93835 45 7.05301 45H21.1934H23.2651H37.4055C37.4228 45 37.4401 44.9999 37.4573 44.9997C37.4745 44.9999 37.4918 45 37.5091 45H53.7213C55.8358 45 57.9421 43.258 58.4256 41.109L65.9003 7.89101C66.3838 5.74209 65.0617 4 62.947 4H46.7349C46.7176 4 46.7003 4.00012 46.683 4.00035C46.6658 4.00012 46.6486 4 46.6313 4H32.491H30.4191H16.2788C14.1642 4 12.0579 5.74209 11.5744 7.89101L4.09971 41.109Z" fill="#DC1F2A"/>
<path d="M4.09971 41.109L7.72895 41.9257L7.72896 41.9256L4.09971 41.109ZM37.4573 44.9997L37.5077 41.28L37.4575 41.2793L37.4073 41.28L37.4573 44.9997ZM58.4256 41.109L54.7963 40.2923L54.7963 40.2925L58.4256 41.109ZM65.9003 7.89101L69.5296 8.70767L69.5296 8.70758L65.9003 7.89101ZM46.683 4.00035L46.6327 7.72001L46.6829 7.72069L46.733 7.72001L46.683 4.00035ZM11.5744 7.89101L7.94511 7.0743L7.9451 7.07436L11.5744 7.89101ZM7.05301 41.28C7.03972 41.28 7.11136 41.2788 7.22982 41.3351C7.34929 41.392 7.47016 41.4862 7.56515 41.6113C7.77449 41.8871 7.69708 42.0673 7.72895 41.9257L0.470459 40.2923C0.0187502 42.2997 0.360661 44.4254 1.63889 46.1094C2.93147 47.8124 4.926 48.72 7.05301 48.72V41.28ZM21.1934 41.28H7.05301V48.72H21.1934V41.28ZM23.2651 41.28H21.1934V48.72H23.2651V41.28ZM37.4055 41.28H23.2651V48.72H37.4055V41.28ZM37.4073 41.28C37.407 41.28 37.4063 41.28 37.4055 41.28V48.72C37.4392 48.72 37.4732 48.7198 37.5074 48.7193L37.4073 41.28ZM37.407 48.7193C37.4413 48.7198 37.4754 48.72 37.5091 48.72V41.28C37.5082 41.28 37.5077 41.28 37.5077 41.28L37.407 48.7193ZM37.5091 48.72H53.7213V41.28H37.5091V48.72ZM53.7213 48.72C57.6782 48.72 61.2124 45.67 62.0549 41.9255L54.7963 40.2925C54.6718 40.846 53.9935 41.28 53.7213 41.28V48.72ZM62.0548 41.9256L69.5296 8.70767L62.2711 7.07435L54.7963 40.2923L62.0548 41.9256ZM69.5296 8.70758C69.9812 6.7003 69.6393 4.57468 68.3611 2.89066C67.0686 1.18768 65.0741 0.28 62.947 0.28V7.72C62.9603 7.72 62.8886 7.72123 62.7701 7.66484C62.6506 7.60799 62.5298 7.51379 62.4348 7.38867C62.2255 7.11292 62.3029 6.93281 62.271 7.07444L69.5296 8.70758ZM62.947 0.28H46.7349V7.72H62.947V0.28ZM46.7349 0.28C46.7009 0.28 46.6669 0.280229 46.633 0.280684L46.733 7.72001C46.7337 7.72 46.7343 7.72 46.7349 7.72V0.28ZM46.6313 7.72C46.6319 7.72 46.6324 7.72 46.6327 7.72001L46.7333 0.280689C46.6993 0.280229 46.6653 0.28 46.6313 0.28V7.72ZM32.491 7.72H46.6313V0.28H32.491V7.72ZM30.4191 7.72H32.491V0.28H30.4191V7.72ZM16.2788 7.72H30.4191V0.28H16.2788V7.72ZM15.2036 8.70772C15.3282 8.15399 16.0066 7.72 16.2788 7.72V0.28C12.3217 0.28 8.78767 3.3302 7.94511 7.0743L15.2036 8.70772ZM7.72896 41.9256L15.2036 8.70766L7.9451 7.07436L0.470452 40.2923L7.72896 41.9256Z" fill="white" mask="url(#path-1-outside-1_1_2669)"/>
<path fill-rule="evenodd" clip-rule="evenodd" d="M4.09971 41.109C3.61612 43.258 4.93835 45 7.05301 45H23.2651C25.3797 45 27.486 43.258 27.9695 41.109L35.4442 7.89101C35.9277 5.74209 34.6055 4 32.491 4H16.2788C14.1642 4 12.0579 5.74209 11.5744 7.89101L4.09971 41.109Z" fill="#DC1F2A"/>
<path fill-rule="evenodd" clip-rule="evenodd" d="M18.2401 41.109C17.7565 43.258 19.0787 45 21.1934 45H37.4055C39.5201 45 41.6263 43.258 42.1099 41.109L49.5845 7.89101C50.0681 5.74209 48.7459 4 46.6313 4H30.4191C28.3045 4 26.1983 5.74209 25.7147 7.89101L18.2401 41.109Z" fill="#1A457F"/>
<path fill-rule="evenodd" clip-rule="evenodd" d="M34.5559 41.109C34.0723 43.258 35.3945 45 37.5091 45H53.7213C55.8358 45 57.9421 43.258 58.4256 41.109L65.9003 7.89101C66.3838 5.74209 65.0617 4 62.947 4H46.7349C44.6202 4 42.5141 5.74209 42.0305 7.89101L34.5559 41.109Z" fill="#05798A"/>
<path fill-rule="evenodd" clip-rule="evenodd" d="M45.0676 34.3529C45.51 34.3529 45.9187 34.3566 46.3272 34.3474C46.3703 34.3465 46.4354 34.2777 46.4505 34.2277C46.5414 33.9291 46.6212 33.6269 46.7034 33.3255C46.7221 33.2563 46.7353 33.1855 46.7555 33.0951C46.3774 33.0951 46.021 33.0923 45.6647 33.0959C45.3582 33.099 45.4335 33.0454 45.3465 33.3386C45.2489 33.667 45.1641 33.9996 45.0676 34.3529ZM48.1288 28.132C47.6928 28.132 47.2755 28.1297 46.8582 28.1364C46.8245 28.1369 46.7762 28.1936 46.7615 28.2343C46.7185 28.3532 46.6886 28.4772 46.6545 28.5994C46.5477 28.9829 46.4415 29.3666 46.3305 29.7668C46.3835 29.7525 46.4128 29.7444 46.4422 29.7366C46.8608 29.6249 47.2803 29.5171 47.6965 29.397C47.7503 29.3815 47.8093 29.3096 47.8271 29.2514C47.9182 28.9532 47.9971 28.6512 48.079 28.3502C48.0966 28.2856 48.109 28.2196 48.1288 28.132ZM47.4512 30.6099C47.0085 30.6099 46.5953 30.6077 46.1822 30.6137C46.1462 30.6143 46.0891 30.6625 46.0788 30.6994C45.9303 31.2325 45.7882 31.7675 45.6422 32.3104C45.6715 32.3104 45.6879 32.3152 45.6999 32.3097C46.1306 32.1143 46.5694 31.9458 47.0368 31.8674C47.0688 31.8621 47.1126 31.8271 47.1212 31.7969C47.2317 31.4118 47.3368 31.0249 47.4512 30.6099ZM45.1051 28.1423C44.9832 28.1327 44.8822 28.1246 44.7583 28.1149C44.8236 27.8764 44.8842 27.6541 44.9455 27.4319C44.9961 27.2482 45.0421 27.0628 45.1024 26.8825C45.1183 26.835 45.1795 26.7704 45.2205 26.7699C45.7951 26.7639 46.37 26.7676 46.9447 26.7697C46.9588 26.7698 46.9731 26.7808 47.0025 26.7931C46.9848 26.9283 46.9668 27.0666 46.9457 27.2282C47.1194 27.1571 47.2709 27.0944 47.4228 27.033C47.8849 26.846 48.3615 26.7511 48.8611 26.7608C49.4513 26.7722 50.0419 26.763 50.6322 26.7641C50.6973 26.7642 50.7623 26.7727 50.846 26.7786C50.8313 26.8469 50.8229 26.8973 50.8095 26.9463C50.7162 27.2885 50.615 27.6286 50.5313 27.9731C50.5008 28.0986 50.4424 28.1443 50.3275 28.1282C50.1814 28.1078 50.1113 28.1633 50.069 28.3179C49.5323 30.2783 48.9882 32.2365 48.4465 34.1953C48.4342 34.2398 48.4276 34.2861 48.4156 34.3448C48.5276 34.3505 48.6289 34.3557 48.7506 34.362C48.7393 34.4215 48.7333 34.471 48.7202 34.5187C48.6333 34.8351 48.5389 35.1497 48.4599 35.4682C48.4296 35.5899 48.3755 35.6425 48.2568 35.6214C48.099 35.5933 48.0326 35.6614 47.9948 35.8229C47.9151 36.1647 47.9046 36.1622 47.5615 36.1622H46.272H46.0807C46.1288 35.9764 46.1707 35.815 46.2184 35.6306H42.7113C42.7113 35.5748 42.7037 35.538 42.7125 35.5058C42.8074 35.1587 42.9088 34.8132 42.9991 34.4648C43.0289 34.3498 43.1022 34.34 43.1869 34.3549C43.3491 34.3836 43.4067 34.3059 43.4486 34.1528C43.9876 32.1819 44.5332 30.2129 45.077 28.2434C45.0839 28.2188 45.0908 28.194 45.1051 28.1423Z" fill="#FEFEFE"/>
<path fill-rule="evenodd" clip-rule="evenodd" d="M14.7082 14.5415C14.6402 14.8817 14.5776 15.1975 14.514 15.5132C14.1496 17.3228 13.7784 19.131 13.4276 20.9433C13.3787 21.196 13.3898 21.4775 13.4418 21.7307C13.5442 22.2291 13.9237 22.5216 14.5036 22.5693C15.1563 22.6229 15.7743 22.5132 16.2933 22.0574C16.6958 21.7039 16.8756 21.2326 16.9791 20.7155C17.3817 18.7025 17.7893 16.6906 18.1947 14.6782C18.2099 14.6029 18.2222 14.539 18.3257 14.5398C18.9109 14.5443 19.496 14.5423 20.0811 14.5432C20.1011 14.5432 20.1211 14.5505 20.1497 14.5561C20.1497 14.5888 20.1549 14.6202 20.149 14.6492C19.7187 16.7755 19.3016 18.9048 18.8519 21.0267C18.4831 22.7668 17.3986 23.7967 15.7237 24.1714C14.8756 24.3611 14.0158 24.3794 13.1696 24.1445C12.2758 23.8965 11.6392 23.3583 11.432 22.3905C11.3176 21.8559 11.3835 21.3229 11.491 20.7931C11.9025 18.7658 12.3124 16.7381 12.7182 14.7095C12.7437 14.5821 12.786 14.536 12.9181 14.538C13.4564 14.5463 13.9951 14.5415 14.5336 14.5415H14.7082Z" fill="#FEFEFE"/>
<path fill-rule="evenodd" clip-rule="evenodd" d="M37.4447 30.6936C37.5291 30.6936 37.5897 30.6933 37.6504 30.6936C38.4167 30.6973 39.1831 30.7041 39.9493 30.7C40.0252 30.6996 40.1471 30.6498 40.168 30.5923C40.2516 30.3628 40.3039 30.1212 40.3727 29.8655C39.4795 29.8655 38.6154 29.8647 37.7512 29.8684C37.7159 29.8686 37.6582 29.9047 37.6491 29.9359C37.5779 30.1782 37.5161 30.4237 37.4447 30.6936ZM40.8683 28.0015C40.8272 27.9955 40.8073 27.99 40.7874 27.99C39.9496 27.9896 39.1118 27.9913 38.274 27.9869C38.1773 27.9863 38.1494 28.035 38.1285 28.1124C38.0509 28.398 37.9713 28.683 37.894 28.9687C37.8849 29.002 37.885 29.0377 37.8793 29.0856C37.9133 29.0746 37.933 29.0709 37.9502 29.0622C38.3282 28.8714 38.7269 28.7871 39.1485 28.7944C39.6086 28.8024 40.069 28.799 40.5292 28.7923C40.581 28.7916 40.6647 28.7483 40.6782 28.706C40.7498 28.4806 40.8036 28.2491 40.8683 28.0015ZM38.3045 26.7399C38.2833 26.956 38.2643 27.1486 38.2427 27.3678C38.4332 27.2565 38.596 27.1576 38.7621 27.065C39.2161 26.8117 39.6977 26.6866 40.2189 26.6939C41.0887 26.7061 41.9587 26.697 42.8286 26.6978C42.8935 26.6979 42.9586 26.7055 43.042 26.7107C43.0232 26.796 43.0113 26.8621 42.994 26.9268C42.6223 28.3119 42.2448 29.6955 41.8807 31.0828C41.7633 31.5299 41.4659 31.7358 41.0544 31.8116C40.9078 31.8385 40.7563 31.8471 40.607 31.8475C39.5042 31.8503 38.4013 31.852 37.2984 31.8453C37.1622 31.8445 37.1172 31.8924 37.0841 32.0196C36.8399 32.9577 36.5877 33.8936 36.3387 34.8305C36.2723 35.0803 36.3058 35.1263 36.5522 35.1277C36.7619 35.1287 36.9715 35.1278 37.2093 35.1278C37.1222 35.4597 37.0479 35.7557 36.963 36.0484C36.9533 36.082 36.8847 36.1188 36.8438 36.1185C36.1866 36.1126 35.5294 36.1037 34.8725 36.0873C34.7773 36.0849 34.6787 36.05 34.5893 36.0116C34.3747 35.9196 34.2881 35.7572 34.3468 35.5259C34.528 34.8121 34.7175 34.1007 34.9052 33.3887C35.4748 31.227 36.0466 29.0657 36.6119 26.9027C36.6468 26.7689 36.6981 26.726 36.8313 26.7286C37.266 26.7371 37.7011 26.7315 38.136 26.732C38.1867 26.7321 38.2372 26.7366 38.3045 26.7399Z" fill="#FEFEFE"/>
<path fill-rule="evenodd" clip-rule="evenodd" d="M44.2133 19.1426C44.2553 19.1492 44.2753 19.1551 44.2951 19.1551C44.9059 19.1554 45.5171 19.1692 46.1274 19.1499C46.5218 19.1374 46.8985 19.027 47.1736 18.7062C47.5201 18.3022 47.6381 17.8149 47.6204 17.2882C47.6103 16.9906 47.4694 16.7608 47.2004 16.6557C46.9911 16.5741 46.7635 16.5099 46.5417 16.5008C45.9834 16.4781 45.424 16.493 44.8649 16.4877C44.7662 16.4868 44.7308 16.5278 44.7128 16.6216C44.635 17.027 44.5501 17.4311 44.4696 17.8361C44.3841 18.266 44.3007 18.6963 44.2133 19.1426ZM41.3365 24.1125C41.4167 23.7042 41.492 23.3151 41.5697 22.9265C41.9901 20.8237 42.4111 18.7211 42.8314 16.6184C42.9384 16.0836 43.0447 15.5488 43.1488 15.0135C43.1675 14.9175 43.2047 14.8738 43.3116 14.8741C44.6835 14.8789 46.0556 14.8709 47.4274 14.8832C47.864 14.887 48.2898 14.9853 48.6774 15.2083C49.2235 15.5225 49.5107 16.0211 49.5539 16.6448C49.6241 17.6568 49.4054 18.6022 48.7888 19.4153C48.1657 20.2371 47.3421 20.7136 46.3241 20.7671C45.5702 20.8066 44.8135 20.792 44.0581 20.7931C43.9198 20.7932 43.8647 20.8316 43.8369 20.9783C43.6468 21.9769 43.445 22.9732 43.2494 23.9707C43.2281 24.0792 43.1881 24.1286 43.0672 24.1269C42.5392 24.1192 42.0111 24.1238 41.483 24.1232C41.4425 24.1231 41.402 24.1174 41.3365 24.1125Z" fill="#FEFEFE"/>
<path fill-rule="evenodd" clip-rule="evenodd" d="M51.1718 32.6364H49.4146C49.5262 32.2343 49.6286 31.8521 49.7436 31.4739C49.7536 31.4407 49.8454 31.4175 49.8994 31.417C50.4482 31.4129 50.9972 31.4103 51.546 31.4178C51.6662 31.4195 51.7197 31.3828 51.7495 31.2644C51.8262 30.9577 51.9142 30.6541 52.0046 30.3242H50.0656C50.0817 30.2491 50.0901 30.1993 50.1033 30.1507C50.1868 29.8443 50.2742 29.539 50.3541 29.2317C50.3805 29.1298 50.4233 29.0847 50.5347 29.085C52.3315 29.0884 54.1282 29.0874 55.9251 29.088C55.9652 29.088 56.0053 29.096 56.0613 29.1021C56.0489 29.1633 56.0416 29.2142 56.0282 29.2635C55.9451 29.57 55.8565 29.875 55.7789 30.1829C55.7518 30.2906 55.7028 30.3236 55.5958 30.3225C55.0936 30.3167 54.5912 30.3234 54.089 30.3173C53.9749 30.3159 53.9255 30.3516 53.8971 30.4665C53.8202 30.7782 53.7298 31.0865 53.6396 31.4149H55.4265C55.3991 31.5228 55.3781 31.6123 55.3537 31.7009C55.2807 31.9663 55.2003 32.2297 55.1354 32.4971C55.1076 32.6117 55.0582 32.6494 54.9442 32.6483C54.3798 32.6428 53.8152 32.6501 53.2509 32.6424C53.1256 32.6408 53.052 32.6823 52.9903 32.7901C52.8946 32.9574 52.7859 33.1168 52.6624 33.3116C52.9459 33.3116 53.1926 33.3173 53.4389 33.3091C53.5695 33.3048 53.6308 33.3422 53.6509 33.4864C53.7069 33.8903 53.7824 34.2913 53.8435 34.6946C53.8683 34.8587 53.9676 34.9191 54.1103 34.9264C54.2333 34.9326 54.3568 34.9277 54.4939 34.9277C54.4864 34.9844 54.4857 35.02 54.4769 35.0531C54.3919 35.3701 54.3041 35.6862 54.2206 36.0036C54.1967 36.0944 54.1512 36.1295 54.0565 36.1284C53.6735 36.1235 53.29 36.1334 52.907 36.1245C52.5724 36.1167 52.2568 35.9821 52.2022 35.521C52.1542 35.1145 52.0448 34.7156 51.9565 34.2845C51.6517 34.7539 51.3554 35.1948 51.0756 35.6461C50.8556 36.001 50.5584 36.1756 50.146 36.1666C49.644 36.1556 49.1416 36.1629 48.6393 36.1623C48.5835 36.1622 48.5278 36.1623 48.4455 36.1623C48.488 35.9984 48.523 35.857 48.5613 35.7165C48.6182 35.5071 48.6812 35.2994 48.7336 35.0887C48.7557 34.9998 48.8001 34.9658 48.8859 34.9681C49.0153 34.9712 49.1449 34.964 49.2742 34.969C49.5076 34.9783 49.6923 34.8753 49.8204 34.689C50.2708 34.033 50.7117 33.3702 51.1556 32.7094C51.1634 32.6978 51.1626 32.6799 51.1718 32.6364Z" fill="#FEFEFE"/>
<path fill-rule="evenodd" clip-rule="evenodd" d="M55.9035 18.4162H57.8021C57.8199 19.0435 57.8443 19.6645 57.8532 20.2857C57.862 20.9007 57.8551 21.5161 57.8551 22.1313C57.875 22.1333 57.8949 22.1353 57.9148 22.1373C58.0769 21.7496 58.2394 21.3621 58.401 20.9741C58.7346 20.1735 59.0704 19.3739 59.3982 18.5707C59.4526 18.4373 59.5224 18.3897 59.664 18.3931C60.0833 18.4031 60.503 18.3964 60.9225 18.397C60.9777 18.3971 61.0329 18.4017 61.1143 18.4054C61.0843 18.4789 61.0658 18.5314 61.042 18.5811C59.9219 20.9155 58.8047 23.2513 57.6789 25.5828C57.2772 26.4149 56.8031 27.1986 56.1391 27.8455C55.6347 28.337 55.0392 28.6073 54.3476 28.6586C54.1799 28.6709 54.0119 28.6793 53.8174 28.6912C53.8499 28.4323 53.878 28.2078 53.9064 27.9833C53.9151 27.9148 53.9155 27.8434 53.9369 27.7794C53.9534 27.7305 53.9883 27.6673 54.03 27.6511C54.5966 27.4302 54.9982 27.0086 55.3435 26.5196C55.762 25.9266 56.0705 25.269 56.3484 24.6001C56.4197 24.4285 56.3565 24.1939 56.3418 23.9893C56.3079 23.5179 56.2655 23.0472 56.2273 22.5762C56.1784 21.9728 56.1296 21.3695 56.082 20.7661C56.0361 20.1837 55.9918 19.6011 55.9472 19.0187C55.9327 18.8285 55.9196 18.6382 55.9035 18.4162Z" fill="#FEFEFE"/>
<path fill-rule="evenodd" clip-rule="evenodd" d="M52.4463 20.8941C52.4118 20.7739 52.3719 20.5242 52.2695 20.3055C52.123 19.9929 51.8192 19.8964 51.5063 20.0282C51.3982 20.0738 51.2903 20.1361 51.2026 20.2149C50.6533 20.7087 50.4276 21.3549 50.4119 22.0848C50.4066 22.3332 50.4573 22.5817 50.6003 22.797C50.76 23.0373 51.0054 23.1318 51.2762 23.0499C51.5132 22.9783 51.6972 22.8234 51.8517 22.6336C52.2303 22.1684 52.4121 21.6256 52.4463 20.8941ZM52.6685 19.3126C52.7689 19.2428 52.873 19.1822 52.9635 19.105C53.1783 18.9213 53.4162 18.8326 53.7005 18.8275C54.0097 18.822 54.318 18.7724 54.627 18.7446C54.6923 18.7387 54.7586 18.7437 54.8412 18.7437C54.7549 19.156 54.6742 19.5494 54.5899 19.9419C54.3033 21.2777 54.0131 22.6127 53.7316 23.9497C53.7026 24.0871 53.6547 24.1311 53.5187 24.1257C53.0273 24.1063 52.5352 24.1029 52.0438 24.0834C51.9771 24.0807 51.9037 24.0319 51.8491 23.9851C51.7827 23.9282 51.733 23.8509 51.6883 23.7972C51.3334 23.903 50.9952 24.0161 50.6508 24.1027C50.3366 24.1816 50.0138 24.1909 49.6975 24.1088C49.125 23.9603 48.8279 23.5456 48.7079 22.98C48.553 22.2497 48.6875 21.5441 48.9121 20.8515C49.0601 20.3954 49.273 19.9729 49.5496 19.5821C49.9132 19.0683 50.431 18.8489 51.012 18.7419C51.517 18.649 51.9614 18.8087 52.3726 19.0971C52.4705 19.1658 52.5662 19.238 52.6685 19.3126Z" fill="#FEFEFE"/>
<path fill-rule="evenodd" clip-rule="evenodd" d="M34.0785 35.0578C33.983 35.4148 33.8968 35.7477 33.8016 36.0776C33.792 36.1113 33.7286 36.1501 33.6901 36.1502C32.7011 36.1538 31.7121 36.1601 30.7233 36.1481C30.3051 36.143 30.0826 35.8461 30.1745 35.4123C30.2787 34.9202 30.4172 34.4357 30.5429 33.9485C30.6182 33.6567 30.6979 33.3662 30.7823 33.0497H29.574C29.629 32.8341 29.6765 32.6459 29.7252 32.458C29.7665 32.299 29.8122 32.1412 29.8501 31.9814C29.8706 31.895 29.9116 31.8631 30.0012 31.8647C30.3274 31.8702 30.6536 31.8695 30.9797 31.8638C31.0254 31.863 31.1012 31.831 31.1109 31.7975C31.2077 31.4627 31.2935 31.1245 31.3883 30.7652H30.2455C30.255 30.7053 30.2582 30.6647 30.2683 30.626C30.3468 30.3234 30.4291 30.0218 30.5047 29.7185C30.5288 29.6218 30.5715 29.5699 30.6748 29.5839C30.7206 29.5902 30.7679 29.5848 30.8144 29.5848H35.1793H35.4007C35.3818 29.6741 35.3701 29.7449 35.3518 29.8139C35.2828 30.0752 35.2062 30.3344 35.1441 30.5972C35.1155 30.7182 35.0727 30.7687 34.939 30.7663C34.3955 30.7566 33.8516 30.7677 33.3081 30.7584C33.1764 30.7561 33.1309 30.8014 33.1019 30.9256C33.0297 31.2339 32.9425 31.5386 32.8561 31.8643H34.7337C34.7267 31.9208 34.726 31.9611 34.7161 31.999C34.6387 32.2963 34.5555 32.5921 34.4828 32.8906C34.4547 33.0063 34.4064 33.0533 34.2829 33.0515C33.7548 33.0443 33.2266 33.0539 32.6986 33.0447C32.5665 33.0424 32.5235 33.0918 32.4927 33.2132C32.3675 33.706 32.2331 34.1965 32.1006 34.6875C32.0297 34.9497 32.1022 35.0556 32.3728 35.0577C32.8388 35.0615 33.3048 35.0582 33.7708 35.0579C33.8634 35.0578 33.956 35.0578 34.0785 35.0578Z" fill="#FEFEFE"/>
<path fill-rule="evenodd" clip-rule="evenodd" d="M30.784 21.875C30.784 21.9388 30.781 22.0028 30.7844 22.0663C30.812 22.5706 31.0946 22.8949 31.5776 22.9786C32.1399 23.0759 32.6937 22.8056 33.001 22.2539C33.3134 21.6929 33.4572 21.0825 33.4166 20.4343C33.3885 19.9852 33.1266 19.6492 32.7179 19.5707C32.1945 19.4703 31.7251 19.5948 31.3771 20.0338C30.954 20.5675 30.824 21.2085 30.784 21.875ZM31.5406 24.2596C31.1049 24.2633 30.6822 24.1984 30.2973 23.9768C29.6 23.5755 29.2996 22.9298 29.2964 22.1386C29.2929 21.2703 29.51 20.4551 29.9853 19.7278C30.8679 18.3772 32.3541 18.0265 33.5504 18.3959C34.3212 18.6339 34.8463 19.3287 34.8878 20.1541C34.9492 21.3759 34.638 22.4721 33.7738 23.3517C33.1597 23.9768 32.4015 24.2604 31.5406 24.2596Z" fill="#FEFEFE"/>
<path fill-rule="evenodd" clip-rule="evenodd" d="M36.7128 24.1095H35.2897C35.3743 23.6662 35.4554 23.2344 35.5394 22.8033C35.8154 21.3874 36.0941 19.9722 36.3654 18.5554C36.3887 18.4339 36.4345 18.4 36.5481 18.4016C36.9511 18.4071 37.3542 18.4038 37.7837 18.4038C37.7376 18.6597 37.695 18.8959 37.6525 19.1322C37.6697 19.1477 37.6869 19.1631 37.7042 19.1786C37.7235 19.1375 37.7349 19.089 37.7634 19.0562C38.4097 18.3128 39.212 18.1156 40.1295 18.3661C40.5703 18.4865 40.8981 18.9407 40.9568 19.4248C41.0087 19.8524 40.9071 20.2586 40.8282 20.6686C40.616 21.7714 40.3969 22.8728 40.1881 23.9763C40.1645 24.1011 40.1145 24.1274 40.0041 24.1257C39.6417 24.1203 39.2792 24.1241 38.9167 24.1232C38.8606 24.1231 38.8045 24.117 38.7261 24.1125C38.7765 23.8472 38.8242 23.5943 38.8727 23.3416C39.0587 22.373 39.2449 21.4043 39.431 20.4357C39.434 20.4201 39.4374 20.4044 39.4395 20.3887C39.5164 19.8108 39.2715 19.528 38.7062 19.5418C38.0421 19.558 37.5281 20.0006 37.3776 20.7277C37.1585 21.7869 36.961 22.8508 36.7541 23.9126C36.742 23.9749 36.7281 24.0369 36.7128 24.1095Z" fill="#FEFEFE"/>
<path fill-rule="evenodd" clip-rule="evenodd" d="M22.0412 18.4075C21.9911 18.6793 21.9463 18.9228 21.8939 19.2076C21.9588 19.132 21.9976 19.085 22.0382 19.0397C22.6699 18.3363 23.4425 18.1079 24.3349 18.3598C24.8843 18.5149 25.2376 18.9838 25.214 19.5675C25.1948 20.0413 25.107 20.5146 25.021 20.9826C24.8398 21.9682 24.6399 22.9502 24.4473 23.9335C24.4362 23.9904 24.4223 24.0467 24.4082 24.1102H22.9886C23.0425 23.8262 23.0936 23.5521 23.1467 23.2785C23.3245 22.3624 23.5065 21.4473 23.6779 20.5299C23.7067 20.3759 23.7056 20.2117 23.6922 20.0546C23.6676 19.7643 23.4957 19.5943 23.215 19.5539C22.5436 19.4575 21.9557 19.7919 21.7256 20.4531C21.5996 20.8152 21.5397 21.2027 21.464 21.5818C21.3039 22.3827 21.1524 23.1853 20.9995 23.9877C20.9856 24.0605 20.978 24.1189 20.8819 24.1181C20.4477 24.1145 20.0135 24.1165 19.5529 24.1165C19.6021 23.8545 19.6472 23.6077 19.695 23.3615C20.0024 21.7787 20.3129 20.1964 20.6147 18.6125C20.6455 18.4508 20.7015 18.3971 20.8643 18.4031C21.2461 18.4168 21.6287 18.4075 22.0412 18.4075Z" fill="#FEFEFE"/>
<path fill-rule="evenodd" clip-rule="evenodd" d="M40.889 35.1813C40.8032 35.4989 40.7277 35.7903 40.6424 36.0787C40.6322 36.1136 40.5704 36.1549 40.5321 36.1552C39.8642 36.1594 39.196 36.1665 38.5283 36.1538C38.1688 36.1469 37.9228 35.8773 37.9233 35.4992C37.924 34.9782 37.9434 34.4573 37.9597 33.9364C37.9766 33.3999 37.9995 32.8634 38.0195 32.3268C38.0274 32.1149 38.0271 32.1147 38.2272 32.1146C38.6364 32.1144 39.0454 32.1146 39.4545 32.1146H39.6467C39.6363 32.3518 39.6266 32.5715 39.6162 32.8102C39.7884 32.8102 39.9471 32.8175 40.1049 32.808C40.2287 32.8005 40.3017 32.7355 40.3356 32.5959C40.4443 32.1481 40.4509 32.1498 40.9068 32.1498H41.8237C41.7019 32.5105 41.6219 32.8537 41.4729 33.1616C41.2976 33.5236 40.9523 33.6663 40.5738 33.6974C40.306 33.7194 40.0357 33.7167 39.7669 33.7135C39.6384 33.712 39.581 33.7418 39.5857 33.8901C39.5958 34.2088 39.5872 34.5282 39.5877 34.8475C39.5879 35.0396 39.6472 35.1185 39.8344 35.1494C39.9612 35.1703 40.0911 35.1771 40.2199 35.1799C40.4313 35.1848 40.643 35.1813 40.889 35.1813Z" fill="#FEFEFE"/>
<path fill-rule="evenodd" clip-rule="evenodd" d="M28.5645 18.4069C28.5015 18.7169 28.4463 18.9961 28.3878 19.2747C28.059 20.8412 27.7283 22.4074 27.4028 23.9746C27.3799 24.0846 27.3405 24.1219 27.2304 24.1202C26.8163 24.1139 26.4022 24.118 25.988 24.1173C25.9429 24.1172 25.8978 24.1115 25.8383 24.1073C25.9367 23.6326 26.0316 23.1713 26.1278 22.7103C26.4139 21.3405 26.7023 19.9713 26.9842 18.6006C27.0135 18.4584 27.0583 18.398 27.2133 18.4025C27.6523 18.4151 28.0917 18.4069 28.5645 18.4069Z" fill="#FEFEFE"/>
<path fill-rule="evenodd" clip-rule="evenodd" d="M30.5431 29.1931C30.6437 28.8182 30.7347 28.4713 30.8332 28.1266C30.8419 28.0963 30.898 28.0684 30.936 28.0614C30.9962 28.0504 31.0597 28.0588 31.1218 28.0575C31.3438 28.053 31.5105 27.9685 31.6321 27.7605C31.8158 27.4467 32.0225 27.1468 32.2267 26.8462C32.2594 26.7982 32.3297 26.7491 32.3832 26.7484C32.942 26.7416 33.5009 26.7445 34.0598 26.7454C34.0792 26.7455 34.0986 26.7532 34.141 26.7624C34.0207 26.9835 33.9065 27.1935 33.7753 27.4346H35.9801C35.885 27.7969 35.8018 28.1291 35.7057 28.4573C35.6955 28.492 35.61 28.5228 35.5594 28.523C34.7883 28.5271 34.0173 28.5287 33.2462 28.5233C33.1167 28.5223 33.0328 28.5546 32.9508 28.6682C32.6915 29.0275 32.3441 29.2104 31.8966 29.1961C31.4579 29.1821 31.0183 29.1931 30.5431 29.1931Z" fill="#FEFEFE"/>
<path fill-rule="evenodd" clip-rule="evenodd" d="M50.9002 26.6898C51.4834 26.6898 52.0311 26.6914 52.5788 26.6885C52.6876 26.6879 52.6878 26.7642 52.6964 26.8368C52.7182 27.021 52.7429 27.2052 52.7559 27.3901C52.7658 27.5335 52.8445 27.5847 52.9686 27.5877C53.0865 27.5907 53.2044 27.5884 53.339 27.5884C53.3309 27.6524 53.3306 27.693 53.3202 27.7309C53.2382 28.0318 53.1527 28.3319 53.0716 28.6332C53.0491 28.717 53.0089 28.7534 52.9191 28.7525C52.4742 28.7484 52.029 28.7568 51.5842 28.7491C51.2044 28.7426 50.9983 28.547 50.9716 28.1581C50.9388 27.6774 50.924 27.1954 50.9002 26.6898Z" fill="#FEFEFE"/>
<path fill-rule="evenodd" clip-rule="evenodd" d="M27.224 17.7126C27.2827 17.4228 27.3411 17.133 27.4002 16.8433C27.4277 16.7082 27.4498 16.5715 27.4886 16.4399C27.5009 16.3982 27.5588 16.3417 27.5963 16.3413C28.0621 16.3356 28.5278 16.3389 28.9936 16.3408C29.0075 16.3409 29.0214 16.3506 29.0517 16.3622C28.9955 16.6408 28.9397 16.9196 28.883 17.1983C28.8534 17.3438 28.8287 17.4907 28.7883 17.6329C28.7765 17.6739 28.718 17.7294 28.6803 17.7299C28.2147 17.7359 27.7489 17.733 27.283 17.7316C27.2685 17.7315 27.2541 17.7226 27.224 17.7126Z" fill="#FEFEFE"/>
</svg>
