<svg width="67" height="40" viewBox="0 0 67 40" fill="none" xmlns="http://www.w3.org/2000/svg">
<path fill-rule="evenodd" clip-rule="evenodd" d="M62.8556 40H4.14444C1.86501 40 0 38.1193 0 35.8206V4.17936C0 1.88072 1.86501 0 4.14444 0H62.8556C65.135 0 67 1.88072 67 4.17936V35.8206C67 38.1193 65.135 40 62.8556 40Z" fill="#1B5BA6"/>
<path fill-rule="evenodd" clip-rule="evenodd" d="M60.134 28.6544C59.6181 28.6544 59.1566 28.6541 58.6951 28.6545C57.9373 28.6553 57.1794 28.6491 56.4217 28.6619C56.1978 28.6657 56.1003 28.5817 56.0588 28.3549C55.9338 27.6724 55.7822 26.9951 55.6635 26.3117C55.6224 26.075 55.5272 26.0059 55.305 26.007C53.6197 26.0154 51.9343 26.0179 50.249 26.0064C50.0065 26.0047 49.9171 26.1088 49.8459 26.324C49.6141 27.0257 49.3729 27.7242 49.1169 28.4166C49.0788 28.5198 48.9428 28.6538 48.851 28.6547C47.4048 28.6697 45.9584 28.6653 44.4604 28.6653C44.7738 27.8829 45.0717 27.139 45.3699 26.3952C47.2178 21.7856 49.0668 17.1764 50.9129 12.5661C51.391 11.3721 51.9253 10.9947 53.1689 10.9942C54.2209 10.9938 55.2727 10.9993 56.3246 10.9922C56.5366 10.9908 56.6301 11.0417 56.679 11.2883C57.4304 15.0845 58.197 18.8775 58.9581 22.6716C59.3329 24.5396 59.7037 26.4086 60.0754 28.2774C60.0956 28.3797 60.1076 28.4839 60.134 28.6544ZM54.8745 22.4029C54.4358 20.2029 54.0034 18.0341 53.5709 15.8651C53.5413 15.8621 53.5118 15.8591 53.4823 15.8561C52.73 18.0256 51.9775 20.1951 51.2119 22.4029C52.4418 22.4029 53.6229 22.4029 54.8745 22.4029Z" fill="white"/>
<path fill-rule="evenodd" clip-rule="evenodd" d="M5.90352 11.4681C5.93501 11.3046 5.95903 11.1783 5.98436 11.0524C5.98638 11.0426 5.99748 11.0348 6.02887 10.9948C6.13575 10.9899 6.26868 10.9783 6.4017 10.9783C8.72033 10.9779 11.039 10.9771 13.3575 10.9802C14.5052 10.9818 15.255 11.6125 15.4728 12.8009C16.067 16.0419 16.6462 19.2859 17.2323 22.5285C17.2544 22.6507 17.2872 22.7707 17.3394 22.998C17.5987 22.3162 17.8225 21.7304 18.0445 21.1438C19.2936 17.8448 20.5428 14.5457 21.7893 11.2456C21.8516 11.0807 21.9144 10.9733 22.1207 10.9751C23.5118 10.9873 24.903 10.9838 26.2942 10.9863C26.3384 10.9864 26.3826 10.9978 26.4683 11.0097C26.3368 11.3487 26.2148 11.6731 26.0859 11.9944C23.8983 17.4529 21.7084 22.9101 19.5266 28.371C19.4336 28.6038 19.3185 28.6876 19.0776 28.6853C17.7544 28.6736 16.4311 28.6718 15.1079 28.6852C14.8492 28.6879 14.7363 28.6162 14.6694 28.3435C13.5425 23.7543 12.3941 19.1708 11.2794 14.5785C11.077 13.7448 10.6984 13.1181 9.91361 12.8328C8.71054 12.3954 7.49698 11.9896 6.28735 11.5725C6.17088 11.5324 6.04956 11.5074 5.90352 11.4681Z" fill="white"/>
<path fill-rule="evenodd" clip-rule="evenodd" d="M45.4582 11.4577C45.2026 12.7034 44.9523 13.9232 44.6984 15.161C43.7102 14.7119 42.7034 14.4174 41.6432 14.3513C40.8591 14.3023 40.0788 14.3116 39.3601 14.7026C39.1637 14.8094 38.976 14.9575 38.8246 15.1261C38.4085 15.5894 38.384 16.2205 38.8355 16.642C39.2596 17.0378 39.7541 17.3592 40.243 17.6698C40.985 18.1412 41.7668 18.5456 42.5008 19.0296C45.8299 21.2245 44.8256 25.4069 42.8265 27.0947C41.6437 28.0931 40.2825 28.6146 38.8065 28.8219C36.6573 29.1236 34.5479 28.8988 32.4945 28.1558C32.3893 28.1178 32.2883 28.0674 32.1641 28.0137C32.4261 26.7345 32.6851 25.47 32.9555 24.1498C33.1325 24.2343 33.2915 24.3089 33.4497 24.3858C34.8715 25.077 36.362 25.3829 37.928 25.2332C38.4963 25.1788 39.0395 25.02 39.505 24.6527C40.2435 24.07 40.3233 23.1194 39.6159 22.5016C39.1282 22.0757 38.5434 21.7701 37.9986 21.4162C37.1955 20.8944 36.3319 20.4533 35.595 19.8448C33.076 17.7642 33.8554 14.55 35.3485 12.9452C36.4922 11.7159 37.9246 11.1035 39.5051 10.8186C41.474 10.4637 43.3981 10.6867 45.2792 11.368C45.3315 11.3868 45.3796 11.4179 45.4582 11.4577Z" fill="white"/>
<path fill-rule="evenodd" clip-rule="evenodd" d="M32.751 11.0083C31.5463 16.8978 30.3467 22.7628 29.1423 28.6511C27.6925 28.6511 26.2502 28.6511 24.7686 28.6511C25.9743 22.7693 27.1778 16.8987 28.3853 11.0083C29.8388 11.0083 31.2806 11.0083 32.751 11.0083Z" fill="white"/>
</svg>
